<?xml version="1.0" encoding="iso-8859-1"?>
<!-- Generator: Adobe Illustrator 19.0.0, SVG Export Plug-In . SVG Version: 6.00 Build 0)  -->
<svg version="1.1" id="Capa_1" xmlns="http://www.w3.org/2000/svg" xmlns:xlink="http://www.w3.org/1999/xlink" x="0px" y="0px"
	 viewBox="0 0 512 512" style="enable-background:new 0 0 512 512;" xml:space="preserve">
<g transform="translate(-1)">
	<g>
		<g>
			<rect x="206.727" y="292.571" width="54.857" height="146.286"/>
			<path d="M188.441,128h91.429c5.049,0,9.143-4.093,9.143-9.143c0-5.049-4.093-9.143-9.143-9.143h-91.429
				c-5.049,0-9.143,4.093-9.143,9.143C179.298,123.907,183.392,128,188.441,128z"/>
			<path d="M179.298,466.286v9.143h109.714v-9.143c-0.005-5.047-4.095-9.138-9.143-9.143h-91.429
				C183.394,457.148,179.303,461.238,179.298,466.286z"/>
			<circle cx="234.156" cy="27.429" r="27.429"/>
			<path d="M215.87,69.268v22.161h36.571V69.268C240.798,74.435,227.513,74.435,215.87,69.268z"/>
			<path d="M270.727,256h-73.143c-5.049,0-9.143,4.093-9.143,9.143c0,5.049,4.093,9.143,9.143,9.143h73.143
				c5.049,0,9.143-4.093,9.143-9.143C279.87,260.093,275.776,256,270.727,256z"/>
			<polygon points="261.584,164.571 261.584,146.286 206.727,146.286 206.727,164.571 206.727,219.429 206.727,237.714 
				261.584,237.714 261.584,219.429 			"/>
			<path d="M298.156,493.714h-128c-5.047,0.005-9.138,4.096-9.143,9.143V512h146.286v-9.143
				C307.293,497.81,303.203,493.719,298.156,493.714z"/>
			<path d="M188.441,173.714h-64c-36.844,0.046-67.919,27.451-72.572,64h37.161c4.187-16.135,18.741-27.409,35.41-27.429h64V173.714
				z"/>
			<path d="M69.584,300.656c-12.75,21.214-27.429,49.759-27.429,62.496c-0.657,15.838,11.595,29.235,27.429,29.991
				c15.833-0.756,28.086-14.153,27.429-29.991C97.013,350.415,82.334,321.871,69.584,300.656z"/>
			<path d="M453.584,301.714h-27.429c-30.287-0.024-54.833-24.57-54.857-54.857v-36.571h9.143c10.099,0,18.286-8.187,18.286-18.286
				s-8.187-18.286-18.286-18.286h-9.143v-73.143c-0.083-50.46-40.968-91.346-91.429-91.429h-14.08v36.571h14.08
				c30.287,0.024,54.833,24.57,54.857,54.857v73.143H279.87v36.571h54.857v36.571c0.083,50.46,40.968,91.346,91.429,91.429h27.429
				c10.099,0,18.286-8.187,18.286-18.286C471.87,309.901,463.683,301.714,453.584,301.714z"/>
		</g>
	</g>
</g>
<g>
</g>
<g>
</g>
<g>
</g>
<g>
</g>
<g>
</g>
<g>
</g>
<g>
</g>
<g>
</g>
<g>
</g>
<g>
</g>
<g>
</g>
<g>
</g>
<g>
</g>
<g>
</g>
<g>
</g>
</svg>
