<svg id="Layer_1" enable-background="new 0 0 512 512" height="512" viewBox="0 0 512 512" width="512" xmlns="http://www.w3.org/2000/svg"><g><path d="m447.733 159.6c0-8.284-6.716-15-15-15h-17.823c-7.482-80.881-75.502-144.6-158.926-144.6-83.502 0-151.42 63.823-158.894 144.6h-17.823c-8.284 0-15 6.716-15 15v228.133h383.467v-228.133zm-96.4 64.267c0 8.284-6.716 15-15 15h-33.199v65.333c0 8.284-6.716 15-15 15h-64.267c-8.284 0-15-6.716-15-15v-65.333h-33.2c-8.284 0-15-6.716-15-15v-64.267c0-8.284 6.716-15 15-15h33.2v-33.2c0-8.284 6.716-15 15-15h64.267c8.284 0 15 6.716 15 15v33.2h33.199c8.284 0 15 6.716 15 15z"/><path d="m273.134 159.6v-33.2h-34.267v33.2c0 8.284-6.716 15-15 15h-33.2v34.267h33.2c8.284 0 15 6.716 15 15v65.333h34.267v-65.333c0-8.284 6.716-15 15-15h33.199v-34.267h-33.199c-8.284 0-15-6.716-15-15z"/><path d="m464.866 417.733h-417.733c-25.847 0-47.133 20.891-47.133 47.134v32.133c0 8.284 6.716 15 15 15h482c8.284 0 15-6.716 15-15v-32.133c0-26.279-21.327-47.134-47.134-47.134z"/></g></svg>