<svg id="Layer_1" enable-background="new 0 0 512 512" height="512" viewBox="0 0 512 512" width="512" xmlns="http://www.w3.org/2000/svg"><path d="m448.215 192.214c0-106.157-86.058-192.214-192.215-192.214l-20.016 468.231 212.231-20.016z" fill="#828282"/><path d="m256 0c-106.157 0-192.215 86.057-192.215 192.214v256l192.215 20.017z" fill="#aaa"/><path d="m414.48 192.214c0-87.386-71.094-158.48-158.48-158.48l-20.016 444.48 178.496-30z" fill="#aaa"/><path d="m384.48 192.214c0-70.844-57.636-128.48-128.48-128.48l-20.016 404.496 148.496-20.016z" fill="#cdcdcd"/><path d="m97.52 192.214v256l158.48 30v-444.48c-87.386 0-158.48 71.094-158.48 158.48z" fill="#cdcdcd"/><path d="m127.52 192.214v256l128.48 20.017v-404.497c-70.844 0-128.48 57.636-128.48 128.48z" fill="#e6e6e6"/><path d="m256 448.215h256v63.785h-256z" fill="#895140"/><path d="m303.839 176.305h-32.839v-32.839h-30v32.839h-32.839v30h32.839v64.732h30v-64.732h32.839z" fill="#464646"/><path d="m0 448.215h256v63.785h-256z" fill="#c9885b"/></svg>