<?xml version="1.0" encoding="iso-8859-1"?>
<!-- Generator: Adobe Illustrator 19.0.0, SVG Export Plug-In . SVG Version: 6.00 Build 0)  -->
<svg version="1.1" id="Capa_1" xmlns="http://www.w3.org/2000/svg" xmlns:xlink="http://www.w3.org/1999/xlink" x="0px" y="0px"
	 viewBox="0 0 511.814 511.814" style="enable-background:new 0 0 511.814 511.814;" xml:space="preserve">
<g transform="translate(-1)">
	<path id="SVGCleanerId_0" style="fill:#BDC3C7;" d="M318.71,494.159v17.655H159.813v-17.655
		c0.028-9.739,7.916-17.627,17.655-17.655h123.586C310.793,476.532,318.681,484.42,318.71,494.159z"/>
	<path style="fill:#BDC3C7;" d="M301.055,458.848v17.655H177.468v-17.655c0.028-9.739,7.916-17.627,17.655-17.655h88.276
		C293.138,441.222,301.026,449.109,301.055,458.848z"/>
	<rect id="SVGCleanerId_1" x="203.951" y="282.297" style="fill:#BDC3C7;" width="70.621" height="158.897"/>
	<path style="fill:#BDC3C7;" d="M292.227,264.641c-0.071,9.721-7.934,17.585-17.655,17.655h-70.621
		c-9.739-0.029-17.627-7.916-17.655-17.655c0.07-9.722,7.934-17.585,17.655-17.655h70.621
		C284.311,247.015,292.198,254.903,292.227,264.641z"/>
	<rect id="SVGCleanerId_2" x="203.951" y="141.055" style="fill:#BDC3C7;" width="70.621" height="105.931"/>
	<path style="fill:#BDC3C7;" d="M301.055,123.4c-0.071,9.721-7.934,17.585-17.655,17.655h-88.276
		c-9.739-0.029-17.627-7.916-17.655-17.655c0.07-9.722,7.934-17.585,17.655-17.655h88.276
		C293.138,105.773,301.026,113.661,301.055,123.4z"/>
	<path id="SVGCleanerId_3" style="fill:#BDC3C7;" d="M265.744,58.429v47.316h-52.966V58.429c6.686,7.63,16.338,12.005,26.483,12.005
		S259.058,66.059,265.744,58.429z"/>
	<path style="fill:#BDC3C7;" d="M274.572,35.124c-0.007,6.202-1.651,12.292-4.767,17.655c-1.141,2.027-2.503,3.922-4.061,5.65
		c-11.243,12.701-29.955,15.556-44.474,6.786c-14.519-8.769-20.701-26.66-14.692-42.522c6.008-15.862,22.491-25.168,39.177-22.117
		S274.564,18.162,274.572,35.124z"/>
	<path id="SVGCleanerId_4" style="fill:#BDC3C7;" d="M203.951,167.538v52.966H133.33c-14.608,0.043-26.44,11.874-26.483,26.483
		H53.882c0.066-43.851,35.597-79.383,79.448-79.448H203.951z"/>
	<path id="SVGCleanerId_5" style="fill:#BDC3C7;" d="M406.986,194.021c-0.022,14.617-11.866,26.461-26.483,26.483H274.572v-52.966
		l105.931,0c7.027-0.009,13.768,2.778,18.737,7.746S406.995,186.994,406.986,194.021z"/>
	<g>
		<path style="fill:#BDC3C7;" d="M468.779,317.607c-0.029,9.739-7.916,17.627-17.655,17.655h-26.483
			c-48.72-0.08-88.196-39.556-88.276-88.276v-26.483h35.31v26.483c0.023,29.242,23.723,52.942,52.966,52.966h26.483
			C460.862,299.98,468.75,307.868,468.779,317.607z"/>
		<path style="fill:#BDC3C7;" d="M371.675,105.745v61.793h-35.31v-61.793c-0.023-29.242-23.723-52.942-52.966-52.966h-13.594
			c6.356-10.912,6.356-24.398,0-35.31h13.594C332.12,17.549,371.595,57.025,371.675,105.745z"/>
	</g>
	<g>
		<path id="SVGCleanerId_0_1_" style="fill:#BDC3C7;" d="M318.71,494.159v17.655H159.813v-17.655
			c0.028-9.739,7.916-17.627,17.655-17.655h123.586C310.793,476.532,318.681,484.42,318.71,494.159z"/>
	</g>
	<path style="fill:#7F8C8D;" d="M301.055,458.848v17.655H177.468v-17.655c0.028-9.739,7.916-17.627,17.655-17.655h88.276
		C293.138,441.222,301.026,449.109,301.055,458.848z"/>
	<g>
		<rect id="SVGCleanerId_1_1_" x="203.951" y="282.297" style="fill:#BDC3C7;" width="70.621" height="158.897"/>
	</g>
	<path style="fill:#7F8C8D;" d="M292.227,264.641c-0.071,9.721-7.934,17.585-17.655,17.655h-70.621
		c-9.739-0.029-17.627-7.916-17.655-17.655c0.07-9.722,7.934-17.585,17.655-17.655h70.621
		C284.311,247.015,292.198,254.903,292.227,264.641z"/>
	<g>
		<rect id="SVGCleanerId_2_1_" x="203.951" y="141.055" style="fill:#BDC3C7;" width="70.621" height="105.931"/>
	</g>
	<path style="fill:#7F8C8D;" d="M301.055,123.4c-0.071,9.721-7.934,17.585-17.655,17.655h-88.276
		c-9.739-0.029-17.627-7.916-17.655-17.655c0.07-9.722,7.934-17.585,17.655-17.655h88.276
		C293.138,105.773,301.026,113.661,301.055,123.4z"/>
	<g>
		<path id="SVGCleanerId_3_1_" style="fill:#BDC3C7;" d="M265.744,58.429v47.316h-52.966V58.429
			c6.686,7.63,16.338,12.005,26.483,12.005S259.058,66.059,265.744,58.429z"/>
	</g>
	<path style="fill:#7F8C8D;" d="M274.572,35.124c-0.007,6.202-1.651,12.292-4.767,17.655c-1.141,2.027-2.503,3.922-4.061,5.65
		c-11.243,12.701-29.955,15.556-44.474,6.786c-14.519-8.769-20.701-26.66-14.692-42.522c6.008-15.862,22.491-25.168,39.177-22.117
		S274.564,18.162,274.572,35.124z"/>
	<g>
		<path id="SVGCleanerId_4_1_" style="fill:#BDC3C7;" d="M203.951,167.538v52.966H133.33c-14.608,0.043-26.44,11.874-26.483,26.483
			H53.882c0.066-43.851,35.597-79.383,79.448-79.448H203.951z"/>
	</g>
	<g>
		<path id="SVGCleanerId_5_1_" style="fill:#BDC3C7;" d="M406.986,194.021c-0.022,14.617-11.866,26.461-26.483,26.483H274.572
			v-52.966l105.931,0c7.027-0.009,13.768,2.778,18.737,7.746S406.995,186.994,406.986,194.021z"/>
	</g>
	<path style="fill:#4482C3;" d="M115.675,359.273c0.65,20.172-15.141,37.068-35.31,37.782c-20.169-0.714-35.96-17.61-35.31-37.782
		c0-23.128,35.31-76.977,35.31-76.977S115.675,336.145,115.675,359.273z"/>
	<g>
		<path style="fill:#547580;" d="M468.779,317.607c-0.029,9.739-7.916,17.627-17.655,17.655h-26.483
			c-48.72-0.08-88.196-39.556-88.276-88.276v-26.483h35.31v26.483c0.023,29.242,23.723,52.942,52.966,52.966h26.483
			C460.862,299.98,468.75,307.868,468.779,317.607z"/>
		<path style="fill:#547580;" d="M371.675,105.745v61.793h-35.31v-61.793c-0.023-29.242-23.723-52.942-52.966-52.966h-13.594
			c6.356-10.912,6.356-24.398,0-35.31h13.594C332.12,17.549,371.595,57.025,371.675,105.745z"/>
	</g>
</g>
<g>
</g>
<g>
</g>
<g>
</g>
<g>
</g>
<g>
</g>
<g>
</g>
<g>
</g>
<g>
</g>
<g>
</g>
<g>
</g>
<g>
</g>
<g>
</g>
<g>
</g>
<g>
</g>
<g>
</g>
</svg>
