<svg id="Capa_1" enable-background="new 0 0 512.082 512.082" height="512" viewBox="0 0 512.082 512.082" width="512" xmlns="http://www.w3.org/2000/svg"><path d="m45 512.042h-30c-8.284 0-15-6.716-15-15v-440.001c0-8.284 6.716-15 15-15h30c8.284 0 15 6.716 15 15v440.001c0 8.284-6.716 15-15 15z" fill="#fdbf00"/><path d="m45 42.041h-14.979v470.001h14.979c8.284 0 15-6.716 15-15v-440.001c0-8.284-6.716-15-15-15z" fill="#ff8856"/><path d="m299 90.04h-270c-8.284 0-15-6.716-15-15v-60c0-8.284 6.716-15 15-15h210c41.355 0 75 33.645 75 75 0 8.284-6.716 15-15 15z" fill="#eee1dc"/><path d="m489.819 512.037c-.001 0-.001 0 0 0l-310.001-.02c-8.284 0-14.999-6.716-14.999-15v-74.978c0-16.104 5.158-31.531 14.52-44.266-3.721-3.85-7.456-8.972-11.984-16.89-11.331-19.812-14.945-54.118.674-78.675l73.027-114.819c19.115-30.054 53.29-47.291 93.763-47.291 41.896 0 76.104 17.313 93.905 47.515l72.885 114.595c15.62 24.558 12.005 58.864.674 78.675-4.528 7.918-8.263 13.041-11.984 16.89 9.362 12.734 14.52 28.162 14.52 44.266v74.998c0 3.979-1.581 7.794-4.394 10.607s-6.628 4.393-10.606 4.393z" fill="#392e6e"/><path d="m502.283 360.883c11.331-19.811 14.946-54.117-.674-78.675l-72.885-114.595c-17.802-30.202-52.009-47.515-93.905-47.515-.758 0-1.51.018-2.264.03v391.898l157.263.01h.001c3.978 0 7.793-1.581 10.606-4.393 2.813-2.813 4.394-6.628 4.394-10.607v-74.998c0-16.104-5.158-31.532-14.52-44.266 3.721-3.848 7.455-8.971 11.984-16.889z" fill="#2b2256"/><path d="m374.347 383.041h-79.057c-17.902 0-32.466-13.356-32.466-29.772v-17.645c-15.455-5.776-26.199-19.475-26.199-35.4v-48.205c0-42.997 40.132-77.978 89.46-77.978h17.466c49.329 0 89.46 34.981 89.46 77.978v48.205c0 15.925-10.744 29.624-26.199 35.4v17.645c.001 16.416-14.563 29.772-32.465 29.772z" fill="#fff4f4"/><path d="m.002 15.04v60c0 8.284 6.716 15 15 15h44.998v-75c0-8.284-6.716-15-15-15h-29.998c-8.284 0-15 6.716-15 15z" fill="#ffde46"/><path d="m343.552 174.041h-10.997v209h41.792c17.902 0 32.466-13.356 32.466-29.772v-17.645c15.455-5.776 26.199-19.475 26.199-35.4v-48.205c0-42.997-40.132-77.978-89.46-77.978z" fill="#f6efea"/><circle clip-rule="evenodd" cx="302.819" cy="266.041" fill="#392e6e" fill-rule="evenodd" r="15"/><circle clip-rule="evenodd" cx="366.819" cy="266.041" fill="#2b2256" fill-rule="evenodd" r="15"/><path d="m45 .04h-14.979v90h29.979v-75c0-8.284-6.716-15-15-15z" fill="#fdbf00"/></svg>