<svg id="Layer_1" enable-background="new 0 0 512 512" height="512" viewBox="0 0 512 512" width="512" xmlns="http://www.w3.org/2000/svg"><g><path d="m336.333 144.6h-33.199v-33.2c0-8.284-6.716-15-15-15h-64.267c-8.284 0-15 6.716-15 15v33.2h-33.2c-8.284 0-15 6.716-15 15v64.267c0 8.284 6.716 15 15 15h33.2v65.333c0 8.284 6.716 15 15 15h64.267c8.284 0 15-6.716 15-15v-65.333h33.199c8.284 0 15-6.716 15-15v-64.267c0-8.284-6.716-15-15-15zm-15 64.267h-33.199c-8.284 0-15 6.716-15 15v65.333h-34.267v-65.333c0-8.284-6.716-15-15-15h-33.2v-34.267h33.2c8.284 0 15-6.716 15-15v-33.2h34.267v33.2c0 8.284 6.716 15 15 15h33.199z"/><path d="m464.866 417.733h-17.133v-258.133c0-8.284-6.716-15-15-15h-17.823c-7.472-80.777-75.392-144.6-158.926-144.6-83.412 0-151.412 63.743-158.894 144.6h-17.823c-8.284 0-15 6.716-15 15v258.133h-17.134c-25.855 0-47.133 20.9-47.133 47.134v32.133c0 8.284 6.716 15 15 15h482c8.284 0 15-6.716 15-15v-32.133c0-26.312-21.363-47.134-47.134-47.134zm-370.599-243.133h17.133c8.284 0 15-6.732 15-15.016 0-71.574 57.9-129.584 129.616-129.584 71.559 0 129.584 57.897 129.584 129.584v.016c0 8.284 6.716 15 15 15h17.134v243.133h-323.467zm387.733 307.4h-452v-17.133c0-9.555 7.763-17.133 17.133-17.133h417.733c9.353 0 17.134 7.564 17.134 17.133z"/></g></svg>